HIERARCHY
ROOT Hips
{
	OFFSET 0.00000 0.00000 0.00000
	CHANNELS 6 Xposition Yposition Zposition Yrotation Zrotation Xrotation 
	JOINT Lumbar
	{
		OFFSET 0 0 0
		CHANNELS 3 Zrotation Xrotation Yrotation
		JOINT Neck
		{
			OFFSET 0.00 0.2701 0.00
			CHANNELS 3 Zrotation Xrotation Yrotation
			End Site
			{
				OFFSET 0.00 0.1379 0.00
			}
		}
		JOINT RightShoulder
		{
			OFFSET 0.0119 0.2289 0.1181
			CHANNELS 3 Zrotation Xrotation Yrotation
			JOINT RightElbow
			{
				OFFSET 0.00 -0.1475 0.00
				CHANNELS 2 Zrotation Yrotation
				JOINT RightWrist
				{
					OFFSET 0.00 -0.1605 0.00
					CHANNELS 2 Zrotation Xrotation
					End Site
					{
						OFFSET 0.0040 -0.1068 0.0006
					}
				}
			}
		}
		JOINT LeftShoulder
		{
			OFFSET 0.0119 0.2289 -0.1181
			CHANNELS 3 Zrotation Xrotation Yrotation
			JOINT LeftElbow
			{
				OFFSET 0.00 -0.1475 0.00
				CHANNELS 2 Zrotation Yrotation
				JOINT LeftWrist
				{
					OFFSET 0.00 -0.1605 0.00
					CHANNELS 2 Zrotation Xrotation
					End Site
					{
						OFFSET 0.0040 -0.1068 -0.0006
					}
				}
			}
		}
	}
	JOINT RightHip
	{
		OFFSET 0.0316 -0.0424 0.0458
		CHANNELS 3 Zrotation Xrotation Yrotation
		JOINT RightKnee
		{
			OFFSET 0.00 -0.2438 0.00
			CHANNELS 1 Zrotation
			JOINT RightAnkle
			{
				OFFSET 0.00 -0.2449 0.00
				CHANNELS 3 Zrotation Xrotation Yrotation
				End Site
				{
					OFFSET 0.1237 -0.0542 0.0051
				}
			}
		}
	}
	JOINT LeftHip
	{
		OFFSET 0.0316 -0.0424 -0.0458
		CHANNELS 3 Zrotation Xrotation Yrotation
		JOINT LeftKnee
		{
			OFFSET 0.00 -0.2438 0.00
			CHANNELS 1 Zrotation
			JOINT LeftAnkle
			{
				OFFSET 0.00 -0.2449 0.00
				CHANNELS 3 Zrotation Xrotation Yrotation
				End Site
				{
					OFFSET 0.1237 -0.0542 -0.0051
				}
			}
		}
	}
}
MOTION
Frames: 18
Frame Time: 0.02
-0.33233 -0.16232 -0.00147 536.29351 -16.90385 -1.14434 24.31584 0.47683 6.90049 -19.74611 -0.93514 -2.11994 166.38694 -150.46539 -87.14688 121.67309 69.50289 -75.22934 -21.88684 166.38688 153.61745 87.14684 126.88288 -68.49649 -75.22911 21.88466 77.26773 -8.08403 -3.38828 -90.08328 -5.84517 -1.78579 -3.06352 88.9771 14.14855 -10.9786 -100.67599 -12.51668 1.84403 3.40973
-0.33098 -0.1629 -0.00104 536.30924 -16.26486 -1.15875 24.37163 0.54612 6.60052 -19.80732 -0.99925 -2.11994 166.38693 -150.43607 -87.14687 121.10938 69.4047 -75.2293 -21.88646 166.38688 154.06708 87.14684 126.36213 -68.41393 -75.2291 21.88465 77.24536 -8.17877 -3.40377 -89.70363 -5.87885 -1.80725 -3.07674 89.0329 13.83708 -10.84261 -101.19619 -12.70497 1.84997 3.42155
-0.32953 -0.1635 -0.00056 536.35858 -15.63713 -1.16988 24.29579 0.64804 6.19794 -19.86027 -1.09423 -2.11994 166.38692 -150.5386 -87.14686 120.79397 69.29121 -75.22925 -21.88598 166.38688 154.52611 87.14684 125.7704 -68.32381 -75.2291 21.88464 77.32061 -8.3868 -3.49525 -89.20903 -5.91506 -1.81964 -3.08653 89.19595 13.32965 -10.83039 -101.81825 -12.94571 1.83335 3.42448
-0.32814 -0.16409 -0.00012 536.39348 -15.00146 -1.18439 24.26962 0.73248 5.84016 -19.92812 -1.17034 -2.11994 166.38691 -150.58604 -87.14686 120.372 69.1873 -75.2292 -21.88556 166.38689 154.96881 87.14684 125.21533 -68.23818 -75.2291 21.88464 77.34879 -8.52735 -3.53891 -88.76095 -5.95183 -1.83379 -3.09673 89.31056 12.91887 -10.75308 -102.40596 -13.15849 1.8261 3.43081
-0.32672 -0.16465 0.00041 536.42418 -14.3788 -1.1899 24.28846 0.82919 5.49121 -19.95043 -1.2691 -2.11994 166.3869 -150.60638 -87.14685 119.92045 69.07392 -75.22915 -21.88508 166.38689 155.4629 87.14684 124.63902 -68.14801 -75.2291 21.88463 77.38901 -8.73032 -3.63255 -88.33129 -5.98156 -1.85839 -3.11198 89.42227 12.47898 -10.7066 -102.93833 -13.38987 1.82251 3.43989
-0.32533 -0.16529 0.00076 536.47204 -13.73214 -1.21332 24.18204 0.90752 5.09978 -20.06597 -1.32707 -2.11994 166.38689 -150.71688 -87.14684 119.59158 68.97604 -75.22911 -21.8847 166.38689 155.85213 87.14684 124.09367 -68.06555 -75.2291 21.88462 77.42632 -8.83475 -3.64511 -87.83801 -6.02651 -1.85889 -3.11582 89.56664 12.05377 -10.6259 -103.613 -13.59385 1.80621 3.4412
-0.32406 -0.16618 0.00057 536.55717 -13.00661 -1.29263 23.75482 0.92925 4.60743 -20.42938 -1.26603 -2.11994 166.38689 -151.04736 -87.14684 119.52957 68.92442 -75.2291 -21.88463 166.38689 155.94852 87.14684 123.62054 -68.00597 -75.2291 21.88461 77.4412 -8.60664 -3.38217 -87.19924 -6.11249 -1.79514 -3.08896 89.76833 11.69519 -10.44441 -104.64326 -13.71762 1.7573 3.42209
-0.32282 -0.16715 0.0002 536.65882 -12.25842 -1.38929 23.20714 0.93088 4.0773 -20.88831 -1.16234 -2.11994 166.38689 -151.46499 -87.14684 119.58489 68.88875 -75.22911 -21.88467 166.38689 155.93962 87.14684 123.18734 -67.95451 -75.2291 21.8846 77.44802 -8.28149 -3.04132 -86.50097 -6.21368 -1.70745 -3.05073 90.00041 11.36113 -10.22138 -105.81544 -13.81052 1.69688 3.39565
-0.32158 -0.16808 -8e-05 536.75428 -11.52631 -1.47447 22.7187 0.94009 3.56982 -21.31129 -1.07715 -2.11994 166.38689 -151.84081 -87.14684 119.59397 68.8457 -75.2291 -21.88466 166.38689 155.97889 87.14684 122.75507 -67.89944 -75.2291 21.88459 77.45239 -8.023 -2.75856 -85.82932 -6.30822 -1.63053 -3.01763 90.22327 11.02994 -10.00232 -106.9322 -13.91191 1.64374 3.37333
-0.32029 -0.16904 -0.00039 536.84545 -10.76881 -1.57448 22.20618 0.95679 3.03532 -21.70424 -0.9969 -2.11994 166.38689 -152.228 -87.14684 119.58142 68.80263 -75.2291 -21.88465 166.38689 156.01524 87.14684 122.23712 -67.84356 -75.2291 21.88458 77.48608 -7.67475 -2.38376 -85.15495 -6.40202 -1.55348 -2.98447 90.43113 10.63444 -9.84864 -108.0168 -14.03803 1.58132 3.34743
-0.3191 -0.16994 -0.00069 536.9489 -10.06044 -1.64801 21.71762 0.95301 2.54988 -22.18038 -0.89571 -2.11994 166.38689 -152.61354 -87.14684 119.639 68.76367 -75.22911 -21.88466 166.38689 156.03494 87.14684 121.91139 -67.79163 -75.2291 21.88457 77.45538 -7.487 -2.17978 -84.47411 -6.50057 -1.47147 -2.94892 90.67523 10.37925 -9.54949 -109.19741 -14.10526 1.53561 3.32731
-0.31817 -0.17068 -0.00091 537.08359 -9.47835 -1.64205 21.31917 0.89462 2.20633 -22.88079 -0.74795 -2.11994 166.38689 -152.94696 -87.14684 119.85712 68.73148 -75.2291 -21.88465 166.38689 156.01393 87.14684 122.07812 -67.74665 -75.22909 21.88456 77.2501 -7.78224 -2.47785 -83.78749 -6.61175 -1.37888 -2.90828 91.01809 10.52401 -8.83942 -110.63675 -14.01095 1.54042 3.32546
-0.31732 -0.17135 -0.00113 537.22965 -8.94945 -1.60915 20.95077 0.81667 1.91468 -23.65806 -0.58042 -2.11994 166.38689 -153.27986 -87.14684 120.14166 68.70309 -75.2291 -21.88465 166.38689 155.98375 87.14684 122.44243 -67.70576 -75.22909 21.88455 76.98005 -8.23873 -2.94769 -83.09807 -6.72655 -1.2827 -2.8659 91.39437 10.80701 -7.98708 -112.16167 -13.85894 1.56221 3.32959
-0.31643 -0.17204 -0.00136 537.36948 -8.40558 -1.59015 20.57277 0.7495 1.60139 -24.38875 -0.42105 -2.11994 166.38689 -153.62973 -87.14684 120.39701 68.67346 -75.2291 -21.88465 166.38689 155.97092 87.14684 122.73558 -67.66432 -75.22909 21.88455 76.73777 -8.61039 -3.33153 -82.41143 -6.8376 -1.18997 -2.82518 91.75121 11.01508 -7.21241 -113.6288 -13.73793 1.57541 3.33077
-0.31555 -0.17278 -0.00156 537.51446 -7.82104 -1.56525 20.17294 0.67378 1.27773 -25.17297 -0.26306 -2.11994 166.38689 -153.91259 -87.14684 120.65111 68.64226 -75.2291 -21.88462 166.38689 155.89805 87.14684 122.95214 -67.61763 -75.22909 21.88453 76.50038 -9.02776 -3.74758 -81.71391 -6.95814 -1.08863 -2.78039 92.12848 11.27346 -6.38276 -115.18226 -13.59756 1.59215 3.33287
-0.31468 -0.17341 -0.00181 537.65114 -7.33544 -1.54541 19.8278 0.61135 0.98944 -25.86144 -0.09883 -2.11994 166.38689 -154.33312 -87.14684 120.92364 68.61508 -75.22911 -21.88467 166.38689 155.95035 87.14684 123.3737 -67.58276 -75.22909 21.88453 76.23989 -9.38912 -4.13662 -81.04214 -7.05949 -1.00479 -2.74383 92.46904 11.46149 -5.63266 -116.57247 -13.48187 1.60538 3.3343
-0.31381 -0.17376 -0.00218 537.76255 -7.09956 -1.55115 19.62306 0.59156 0.77839 -26.27659 0.0841 -2.11994 166.3869 -155.13812 -87.14685 121.21616 68.59746 -75.22914 -21.88497 166.38689 156.34309 87.14684 124.3203 -67.57934 -75.22909 21.88455 75.91111 -9.55984 -4.42409 -80.41706 -7.10755 -0.96944 -2.73016 92.71417 11.40465 -5.15149 -117.50666 -13.4683 1.60782 3.33491
-0.31295 -0.174 -0.00259 537.86523 -6.9637 -1.56196 19.47369 0.58573 0.60267 -26.59019 0.27119 -2.11994 166.38691 -156.08 -87.14685 121.52713 68.58372 -75.22918 -21.88535 166.38689 156.86392 87.14684 125.46417 -67.58769 -75.2291 21.88457 75.56518 -9.66851 -4.67595 -79.82297 -7.13597 -0.95208 -2.72494 92.91852 11.27486 -4.75259 -118.27037 -13.4778 1.6058 3.33429
